<?xml version="1.0" encoding="UTF-8" standalone="no"?>
<svg
   viewBox="0 0 3600 1500"
   version="1.1"
   id="svg1014"
   sodipodi:docname="logo.svg"
   width="3600"
   height="1500"
   inkscape:version="1.1 (c4e8f9e, 2021-05-24)"
   xmlns:inkscape="http://www.inkscape.org/namespaces/inkscape"
   xmlns:sodipodi="http://sodipodi.sourceforge.net/DTD/sodipodi-0.dtd"
   xmlns="http://www.w3.org/2000/svg"
   xmlns:svg="http://www.w3.org/2000/svg">
  <sodipodi:namedview
     id="namedview1016"
     pagecolor="#ffffff"
     bordercolor="#666666"
     borderopacity="1.0"
     inkscape:pageshadow="2"
     inkscape:pageopacity="0.0"
     inkscape:pagecheckerboard="0"
     showgrid="false"
     inkscape:zoom="0.18222222"
     inkscape:cx="159.14634"
     inkscape:cy="1865.8537"
     inkscape:window-width="2563"
     inkscape:window-height="1052"
     inkscape:window-x="0"
     inkscape:window-y="25"
     inkscape:window-maximized="0"
     inkscape:current-layer="svg1014" />
  <defs
     id="defs976">
    <style
       id="style974">.cls-1{fill:#fff;}</style>
  </defs>
  <polygon
     class="cls-1"
     points="682.35,2078.94 682.89,2077.99 789.48,2262.6 1002.92,2262.6 1109.64,2077.75 1002.92,1892.9 789.48,1892.9 788.93,1893.85 682.76,1709.95 789.48,1525.1 682.76,1340.25 469.31,1340.25 362.59,1525.1 468.9,1709.24 362.18,1894.09 468.9,2078.94 "
     id="polygon981"
     transform="translate(0,-1050)" />
  <polygon
     class="cls-1"
     points="1429.81,1522.25 1323.09,1337.4 1109.64,1337.4 1002.92,1522.25 1109.64,1707.1 1323.09,1707.1 "
     id="polygon983"
     transform="translate(0,-1050)" />
  <path
     class="cls-1"
     d="m 1597.72,629.34 106,-337.18 h 48.17 l 106,337.18 h -48.17 l -26.49,-81.89 h -110.85 l -26.49,81.89 z m 86.7,-125.24 h 86.7 l -43.35,-137.28 z"
     id="path985" />
  <path
     class="cls-1"
     d="m 1939.71,420.15 a 60.16,60.16 0 0 1 14.45,-13.66 91,91 0 0 1 18.06,-9.33 q 10.85,-4.32 25.29,-4.33 a 65.49,65.49 0 0 1 27.46,5.92 73.93,73.93 0 0 1 23.12,16.55 77.08,77.08 0 0 1 15.89,25.54 88.74,88.74 0 0 1 5.78,32.4 v 156.1 h -43.35 V 473.88 q 0,-16 -11.08,-26.86 -11.08,-10.86 -27.45,-10.84 a 59.68,59.68 0 0 0 -20,3.16 95.59,95.59 0 0 0 -15.18,6.72 55.91,55.91 0 0 0 -13,9.87 v 173.41 h -43.35 V 436.67 h -33.72 v -43.36 h 77.07 z"
     id="path987" />
  <path
     class="cls-1"
     d="m 2305.78,543.85 a 90.67,90.67 0 0 1 -6.5,34.86 79,79 0 0 1 -18.3,27.18 82.68,82.68 0 0 1 -28.18,17.66 107.2,107.2 0 0 1 -72.25,0 82.48,82.48 0 0 1 -28.18,-17.66 79,79 0 0 1 -18.31,-27.18 90.86,90.86 0 0 1 -6.5,-34.86 v -65 a 90.84,90.84 0 0 1 6.5,-34.85 79,79 0 0 1 18.31,-27.18 82.48,82.48 0 0 1 28.18,-17.66 107,107 0 0 1 72.25,0 82.68,82.68 0 0 1 28.18,17.66 79,79 0 0 1 18.3,27.18 90.66,90.66 0 0 1 6.5,34.85 z m -134.87,-0.64 q 0,19.13 12.77,31.19 12.77,12.06 33,12.07 20.23,0 33,-12.07 12.77,-12.07 12.76,-31.19 v -63.77 q 0,-19.11 -12.76,-31.18 -12.76,-12.07 -33,-12.08 -20.22,0 -33,12.08 -12.78,12.08 -12.77,31.18 z"
     id="path989" />
  <path
     class="cls-1"
     d="m 2411.75,420.15 q 0,-0.45 3.61,-4.78 A 57.81,57.81 0 0 1 2426,406 a 80.77,80.77 0 0 1 17.34,-9.11 64.48,64.48 0 0 1 23.84,-4.1 q 15.42,0 26.49,5.94 a 90.5,90.5 0 0 1 18.79,13.07 95.3,95.3 0 0 1 14.93,19 122.76,122.76 0 0 1 17.34,-19 94.06,94.06 0 0 1 20.23,-13.07 q 12,-5.94 27.46,-5.94 a 60.14,60.14 0 0 1 26,5.92 72.89,72.89 0 0 1 22.4,16.55 79.24,79.24 0 0 1 15.65,25.54 88.74,88.74 0 0 1 5.78,32.4 V 629.3 H 2618.9 V 473.88 q 0,-16 -10.84,-26.86 -10.84,-10.86 -25.28,-10.84 a 50.64,50.64 0 0 0 -18.31,3.16 108.45,108.45 0 0 0 -14.45,6.72 74.19,74.19 0 0 0 -13,9.87 v 173.41 h -43.35 V 473.88 q 0,-16 -10.83,-26.86 -10.83,-10.86 -25.29,-10.84 a 50.64,50.64 0 0 0 -18.31,3.16 108.45,108.45 0 0 0 -14.45,6.72 74.11,74.11 0 0 0 -13,9.87 V 629.34 H 2368.4 V 436.67 h -33.72 v -43.36 h 77.07 z"
     id="path991" />
  <path
     class="cls-1"
     d="m 2782.64,629.34 q -32.76,0 -52.5,-19.75 -19.74,-19.75 -19.75,-52.5 0,-32.76 19.75,-52.51 19.75,-19.75 52.5,-19.75 h 57.8 v -14.45 q 0,-14.45 -9.63,-24.08 -9.63,-9.63 -24.08,-9.63 h -62.62 v -43.36 h 62.62 q 34.68,0 55.87,21.2 21.19,21.2 21.19,55.87 v 159 z m 0,-101.16 q -12.53,0 -20.71,8.19 -8.18,8.19 -8.19,20.72 0,12.53 8.19,20.71 8.19,8.18 20.71,8.19 h 57.8 v -57.81 z"
     id="path993" />
  <path
     class="cls-1"
     d="M 2999.39,629.34 H 2956 V 335.51 h -33.72 v -43.35 h 77.07 z"
     id="path995" />
  <path
     class="cls-1"
     d="m 3192.06,393.31 h 45.76 l -79.48,264.93 q -11.09,36.12 -30.1,54.19 -19.01,18.07 -51.78,18.06 H 3062 v -43.35 h 14.45 q 16.36,0 25.53,-8.19 a 45,45 0 0 0 13,-20.71 l 9.64,-31.3 -65,-190.27 h -31.31 v -43.36 h 62.62 l 53.47,166.19 z"
     id="path997" />
  <path
     class="cls-1"
     d="m 1617,964.11 a 93.63,93.63 0 0 1 7.23,-36.85 95,95 0 0 1 19.75,-29.87 89.58,89.58 0 0 1 29.86,-20 95.39,95.39 0 0 1 37.09,-7.23 h 93.93 v 45.76 h -93.93 q -21.67,0 -34.92,13.25 -13.25,13.25 -13.25,34.92 0,16.38 12,26.25 12,9.87 29.86,17.1 17.82,7.23 38.78,14.45 a 209.17,209.17 0 0 1 38.77,17.82 101.75,101.75 0 0 1 29.87,26.74 q 12,16.14 12,42.14 a 98.1,98.1 0 0 1 -98.75,98.75 H 1621.8 v -45.74 h 103.56 q 23.6,0 38.3,-14.69 14.7,-14.69 14.69,-38.3 0,-16.37 -12,-26.25 -12,-9.88 -29.87,-17.1 -17.82,-7.23 -38.77,-14.45 a 208.62,208.62 0 0 1 -38.78,-17.82 101.31,101.31 0 0 1 -29.86,-26.74 Q 1617,990.13 1617,964.11 Z"
     id="path999" />
  <path
     class="cls-1"
     d="m 1867.46,1056.82 a 90.66,90.66 0 0 1 6.54,-34.82 79,79 0 0 1 18.3,-27.19 82.71,82.71 0 0 1 28.18,-17.65 100,100 0 0 1 36.13,-6.28 q 24.57,0 40,8.08 15.43,8.08 24.08,17.86 a 79.29,79.29 0 0 1 15.42,25.45 l -36.13,20.32 a 47.2,47.2 0 0 0 -9.15,-14.18 61.29,61.29 0 0 0 -13.49,-9.68 q -8.19,-4.5 -20.71,-4.5 -20.23,0 -33,12.07 -12.77,12.07 -12.76,31.19 v 63.77 q 0,19.13 12.76,31.19 12.76,12.06 33,12.07 12.51,0 20.71,-4.29 a 61.27,61.27 0 0 0 13.49,-9.26 44.86,44.86 0 0 0 9.15,-13.55 l 36.13,20.32 a 75.77,75.77 0 0 1 -15.42,25.31 q -8.67,9.54 -24.08,17.18 -15.41,7.64 -40,7.64 a 100.25,100.25 0 0 1 -36.13,-6.27 82.73,82.73 0 0 1 -28.18,-17.66 78.92,78.92 0 0 1 -18.3,-27.18 90.67,90.67 0 0 1 -6.5,-34.86 z"
     id="path1001" />
  <path
     class="cls-1"
     d="m 2093.85,1164 v -149.32 h -33.72 v -43.35 h 77.07 V 1164 h 43.35 v 43.35 H 2050.49 V 1164 Z m 43.35,-245.66 h -43.35 v -48.17 h 43.35 z"
     id="path1003" />
  <path
     class="cls-1"
     d="m 2204.63,1056 a 87.62,87.62 0 0 1 6.51,-34.06 80.89,80.89 0 0 1 18.06,-27 82.72,82.72 0 0 1 27.46,-17.74 92.08,92.08 0 0 1 34.68,-6.39 93.12,93.12 0 0 1 34.68,6.32 82.62,82.62 0 0 1 27.45,17.52 80.16,80.16 0 0 1 18.07,26.65 85.9,85.9 0 0 1 6.46,33.7 v 58.44 h -130 v 12 q 0,16.38 11.08,27.46 11.08,11.08 27.46,11.08 h 77.07 v 43.35 h -77.07 a 89.58,89.58 0 0 1 -33.24,-5.91 76.51,76.51 0 0 1 -25.77,-16.56 75,75 0 0 1 -16.86,-25.3 85.29,85.29 0 0 1 -6,-32.64 z m 86.71,-41.8 q -18.32,0 -30.83,11.66 a 37.65,37.65 0 0 0 -12.53,28.69 v 17.94 h 86.71 v -17.94 a 37.68,37.68 0 0 0 -12.53,-28.69 q -12.52,-11.65 -30.82,-11.66 z"
     id="path1005" />
  <path
     class="cls-1"
     d="m 2479.19,998.17 a 60,60 0 0 1 14.45,-13.66 91,91 0 0 1 18.06,-9.33 q 10.85,-4.32 25.29,-4.33 a 65.46,65.46 0 0 1 27.46,5.92 73.82,73.82 0 0 1 23.12,16.55 77,77 0 0 1 15.89,25.54 88.74,88.74 0 0 1 5.79,32.4 v 156.1 h -43.36 v -155.47 q 0,-16 -11.08,-26.85 -11.08,-10.85 -27.45,-10.84 a 59.68,59.68 0 0 0 -20,3.16 95.45,95.45 0 0 0 -15.17,6.72 55.43,55.43 0 0 0 -13,9.87 v 173.41 h -43.35 v -192.68 h -33.72 v -43.35 h 77.07 z"
     id="path1007" />
  <path
     class="cls-1"
     d="m 2667,1056.82 a 90.66,90.66 0 0 1 6.51,-34.85 79,79 0 0 1 18.3,-27.19 82.71,82.71 0 0 1 28.18,-17.65 100,100 0 0 1 36.13,-6.28 q 24.56,0 40,8.08 15.44,8.08 24.09,17.86 a 79.26,79.26 0 0 1 15.41,25.45 l -36.12,20.32 a 47,47 0 0 0 -9.16,-14.18 61.21,61.21 0 0 0 -13.48,-9.68 q -8.2,-4.5 -20.71,-4.5 -20.23,0 -33,12.07 -12.77,12.07 -12.76,31.19 v 63.77 q 0,19.13 12.76,31.19 12.76,12.06 33,12.07 12.51,0 20.71,-4.29 a 61.19,61.19 0 0 0 13.48,-9.26 44.71,44.71 0 0 0 9.16,-13.55 l 36.12,20.32 a 75.75,75.75 0 0 1 -15.41,25.31 q -8.67,9.54 -24.09,17.18 -15.42,7.64 -40,7.64 a 100.21,100.21 0 0 1 -36.13,-6.27 82.73,82.73 0 0 1 -28.18,-17.66 78.92,78.92 0 0 1 -18.3,-27.18 90.67,90.67 0 0 1 -6.51,-34.86 z"
     id="path1009" />
  <path
     class="cls-1"
     d="m 2869.35,1056 a 87.8,87.8 0 0 1 6.5,-34.06 81.07,81.07 0 0 1 18.07,-27 82.58,82.58 0 0 1 27.45,-17.74 97.8,97.8 0 0 1 69.36,-0.07 82.67,82.67 0 0 1 27.46,17.52 80,80 0 0 1 18.06,26.65 85.72,85.72 0 0 1 6.51,33.65 v 58.44 H 2912.7 v 12 q 0,16.38 11.08,27.46 11.08,11.08 27.46,11.08 h 77.07 v 43.35 h -77.07 a 89.58,89.58 0 0 1 -33.24,-5.91 76.32,76.32 0 0 1 -25.77,-16.56 74.88,74.88 0 0 1 -16.86,-25.3 85.1,85.1 0 0 1 -6,-32.64 z m 86.7,-41.8 q -18.3,0 -30.83,11.66 a 37.67,37.67 0 0 0 -12.52,28.69 v 17.94 h 86.7 v -17.94 a 37.67,37.67 0 0 0 -12.52,-28.69 q -12.52,-11.65 -30.83,-11.66 z"
     id="path1011" />
</svg>
