<svg xmlns="http://www.w3.org/2000/svg" viewBox="0 0 3600 3600"><defs><style>.cls-1{fill:#fff;}</style></defs><g id="BG"><rect width="3600" height="3600"/></g><g id="Logo"><polygon class="cls-1" points="789.48 1892.9 788.93 1893.85 682.76 1709.95 682.76 1709.95 789.48 1525.1 682.76 1340.25 469.31 1340.25 362.59 1525.1 468.9 1709.24 362.18 1894.09 468.9 2078.94 682.35 2078.94 682.89 2077.99 789.48 2262.6 1002.92 2262.6 1109.64 2077.75 1002.92 1892.9 789.48 1892.9"/><polygon class="cls-1" points="1323.09 1337.4 1109.64 1337.4 1002.92 1522.25 1109.64 1707.1 1323.09 1707.1 1429.81 1522.25 1323.09 1337.4"/><path class="cls-1" d="M1597.72,1679.34l106-337.18h48.17l106,337.18h-48.17l-26.49-81.89H1672.38l-26.49,81.89Zm86.7-125.24h86.7l-43.35-137.28Z"/><path class="cls-1" d="M1939.71,1470.15a60.16,60.16,0,0,1,14.45-13.66,91,91,0,0,1,18.06-9.33q10.85-4.32,25.29-4.33a65.49,65.49,0,0,1,27.46,5.92,73.93,73.93,0,0,1,23.12,16.55,77.08,77.08,0,0,1,15.89,25.54,88.74,88.74,0,0,1,5.78,32.4v156.1h-43.35V1523.88q0-16-11.08-26.86t-27.45-10.84a59.68,59.68,0,0,0-20,3.16,95.59,95.59,0,0,0-15.18,6.72,55.91,55.91,0,0,0-13,9.87v173.41h-43.35V1486.67h-33.72v-43.36h77.07Z"/><path class="cls-1" d="M2305.78,1593.85a90.67,90.67,0,0,1-6.5,34.86,79,79,0,0,1-18.3,27.18,82.68,82.68,0,0,1-28.18,17.66,107.2,107.2,0,0,1-72.25,0,82.48,82.48,0,0,1-28.18-17.66,79,79,0,0,1-18.31-27.18,90.86,90.86,0,0,1-6.5-34.86v-65a90.84,90.84,0,0,1,6.5-34.85,79,79,0,0,1,18.31-27.18,82.48,82.48,0,0,1,28.18-17.66,107,107,0,0,1,72.25,0,82.68,82.68,0,0,1,28.18,17.66,79,79,0,0,1,18.3,27.18,90.66,90.66,0,0,1,6.5,34.85Zm-134.87-.64q0,19.13,12.77,31.19t33,12.07q20.23,0,33-12.07t12.76-31.19v-63.77q0-19.11-12.76-31.18t-33-12.08q-20.22,0-33,12.08t-12.77,31.18Z"/><path class="cls-1" d="M2411.75,1470.15q0-.45,3.61-4.78A57.81,57.81,0,0,1,2426,1456a80.77,80.77,0,0,1,17.34-9.11,64.48,64.48,0,0,1,23.84-4.1q15.42,0,26.49,5.94a90.5,90.5,0,0,1,18.79,13.07,95.3,95.3,0,0,1,14.93,19,122.76,122.76,0,0,1,17.34-19,94.06,94.06,0,0,1,20.23-13.07q12-5.94,27.46-5.94a60.14,60.14,0,0,1,26,5.92,72.89,72.89,0,0,1,22.4,16.55,79.24,79.24,0,0,1,15.65,25.54,88.74,88.74,0,0,1,5.78,32.4v156.1h-43.35V1523.88q0-16-10.84-26.86t-25.28-10.84a50.64,50.64,0,0,0-18.31,3.16,108.45,108.45,0,0,0-14.45,6.72,74.19,74.19,0,0,0-13,9.87v173.41h-43.35V1523.88q0-16-10.83-26.86t-25.29-10.84a50.64,50.64,0,0,0-18.31,3.16,108.45,108.45,0,0,0-14.45,6.72,74.11,74.11,0,0,0-13,9.87v173.41H2368.4V1486.67h-33.72v-43.36h77.07Z"/><path class="cls-1" d="M2782.64,1679.34q-32.76,0-52.5-19.75t-19.75-52.5q0-32.76,19.75-52.51t52.5-19.75h57.8v-14.45q0-14.45-9.63-24.08t-24.08-9.63h-62.62v-43.36h62.62q34.68,0,55.87,21.2t21.19,55.87v159Zm0-101.16q-12.53,0-20.71,8.19t-8.19,20.72q0,12.53,8.19,20.71t20.71,8.19h57.8v-57.81Z"/><path class="cls-1" d="M2999.39,1679.34H2956V1385.51h-33.72v-43.35h77.07Z"/><path class="cls-1" d="M3192.06,1443.31h45.76l-79.48,264.93q-11.09,36.12-30.1,54.19t-51.78,18.06H3062v-43.35h14.45q16.36,0,25.53-8.19a45,45,0,0,0,13-20.71l9.64-31.3-65-190.27h-31.31v-43.36h62.62l53.47,166.19Z"/><path class="cls-1" d="M1617,2014.11a93.63,93.63,0,0,1,7.23-36.85,95,95,0,0,1,19.75-29.87,89.58,89.58,0,0,1,29.86-20,95.39,95.39,0,0,1,37.09-7.23h93.93v45.76h-93.93q-21.67,0-34.92,13.25t-13.25,34.92q0,16.38,12,26.25t29.86,17.1q17.82,7.23,38.78,14.45a209.17,209.17,0,0,1,38.77,17.82,101.75,101.75,0,0,1,29.87,26.74q12,16.14,12,42.14a98.1,98.1,0,0,1-98.75,98.75H1621.8V2211.6h103.56q23.6,0,38.3-14.69t14.69-38.3q0-16.37-12-26.25t-29.87-17.1q-17.82-7.23-38.77-14.45a208.62,208.62,0,0,1-38.78-17.82,101.31,101.31,0,0,1-29.86-26.74Q1617,2040.13,1617,2014.11Z"/><path class="cls-1" d="M1867.46,2106.82A90.66,90.66,0,0,1,1874,2072a79,79,0,0,1,18.3-27.19,82.71,82.71,0,0,1,28.18-17.65,100,100,0,0,1,36.13-6.28q24.57,0,40,8.08t24.08,17.86a79.29,79.29,0,0,1,15.42,25.45l-36.13,20.32a47.2,47.2,0,0,0-9.15-14.18,61.29,61.29,0,0,0-13.49-9.68q-8.19-4.5-20.71-4.5-20.23,0-33,12.07t-12.76,31.19v63.77q0,19.13,12.76,31.19t33,12.07q12.51,0,20.71-4.29a61.27,61.27,0,0,0,13.49-9.26,44.86,44.86,0,0,0,9.15-13.55l36.13,20.32a75.77,75.77,0,0,1-15.42,25.31q-8.67,9.54-24.08,17.18t-40,7.64a100.25,100.25,0,0,1-36.13-6.27,82.73,82.73,0,0,1-28.18-17.66,78.92,78.92,0,0,1-18.3-27.18,90.67,90.67,0,0,1-6.5-34.86Z"/><path class="cls-1" d="M2093.85,2214V2064.68h-33.72v-43.35h77.07V2214h43.35v43.35H2050.49V2214Zm43.35-245.66h-43.35v-48.17h43.35Z"/><path class="cls-1" d="M2204.63,2106a87.62,87.62,0,0,1,6.51-34.06,80.89,80.89,0,0,1,18.06-27,82.72,82.72,0,0,1,27.46-17.74,92.08,92.08,0,0,1,34.68-6.39,93.12,93.12,0,0,1,34.68,6.32,82.62,82.62,0,0,1,27.45,17.52,80.16,80.16,0,0,1,18.07,26.65A85.9,85.9,0,0,1,2378,2105v58.44H2248v12q0,16.38,11.08,27.46t27.46,11.08h77.07v43.35h-77.07a89.58,89.58,0,0,1-33.24-5.91,76.51,76.51,0,0,1-25.77-16.56,75,75,0,0,1-16.86-25.3,85.29,85.29,0,0,1-6-32.64Zm86.71-41.8q-18.32,0-30.83,11.66a37.65,37.65,0,0,0-12.53,28.69v17.94h86.71v-17.94a37.68,37.68,0,0,0-12.53-28.69Q2309.64,2064.21,2291.34,2064.2Z"/><path class="cls-1" d="M2479.19,2048.17a60,60,0,0,1,14.45-13.66,91,91,0,0,1,18.06-9.33q10.85-4.32,25.29-4.33a65.46,65.46,0,0,1,27.46,5.92,73.82,73.82,0,0,1,23.12,16.55,77,77,0,0,1,15.89,25.54,88.74,88.74,0,0,1,5.79,32.4v156.1h-43.36V2101.89q0-16-11.08-26.85t-27.45-10.84a59.68,59.68,0,0,0-20,3.16,95.45,95.45,0,0,0-15.17,6.72,55.43,55.43,0,0,0-13,9.87v173.41h-43.35V2064.68h-33.72v-43.35h77.07Z"/><path class="cls-1" d="M2667,2106.82a90.66,90.66,0,0,1,6.51-34.85,79,79,0,0,1,18.3-27.19,82.71,82.71,0,0,1,28.18-17.65,100,100,0,0,1,36.13-6.28q24.56,0,40,8.08t24.09,17.86a79.26,79.26,0,0,1,15.41,25.45l-36.12,20.32a47,47,0,0,0-9.16-14.18,61.21,61.21,0,0,0-13.48-9.68q-8.2-4.5-20.71-4.5-20.23,0-33,12.07t-12.76,31.19v63.77q0,19.13,12.76,31.19t33,12.07q12.51,0,20.71-4.29a61.19,61.19,0,0,0,13.48-9.26,44.71,44.71,0,0,0,9.16-13.55l36.12,20.32a75.75,75.75,0,0,1-15.41,25.31q-8.67,9.54-24.09,17.18t-40,7.64a100.21,100.21,0,0,1-36.13-6.27,82.73,82.73,0,0,1-28.18-17.66,78.92,78.92,0,0,1-18.3-27.18,90.67,90.67,0,0,1-6.51-34.86Z"/><path class="cls-1" d="M2869.35,2106a87.8,87.8,0,0,1,6.5-34.06,81.07,81.07,0,0,1,18.07-27,82.58,82.58,0,0,1,27.45-17.74,97.8,97.8,0,0,1,69.36-.07,82.67,82.67,0,0,1,27.46,17.52,80,80,0,0,1,18.06,26.65,85.72,85.72,0,0,1,6.51,33.65v58.44H2912.7v12q0,16.38,11.08,27.46t27.46,11.08h77.07v43.35h-77.07a89.58,89.58,0,0,1-33.24-5.91,76.32,76.32,0,0,1-25.77-16.56,74.88,74.88,0,0,1-16.86-25.3,85.1,85.1,0,0,1-6-32.64Zm86.7-41.8q-18.3,0-30.83,11.66a37.67,37.67,0,0,0-12.52,28.69v17.94h86.7v-17.94a37.67,37.67,0,0,0-12.52-28.69Q2974.36,2064.21,2956.05,2064.2Z"/></g></svg>